# xmcd CD database file
#
# Track frame offsets:
#	150
#	22605
#	40418
#	56940
#	76023
#	95265
#	117464
#	134624
#	152533
#	175169
#	192538
#
# Disc length: 2887 seconds
#
# Revision: 0
# Processed by: cddbd v1.5.2PL0 Copyright (c) Steve Scherf et al.
# Submitted via: CDex 1.70beta2
#
DISCID=8a0b450b
DTITLE=Gino Paoli, Flavio Boltro, Danilo Rea, Rosario Bonaccorso, Roberto Gatto - Auditorium Recording Studio
DYEAR=2011
DGENRE=Jazz
TTITLE0=Smile
TTITLE1=Canzone di Laigueglia
TTITLE2=Eu sei que vou te amar
TTITLE3=Canzone di istruzioni
TTITLE4=E m'innamorerai
TTITLE5=Canzone piccola 
TTITLE6=Canzone di una mano
TTITLE7=Contigo en la distancia
TTITLE8=Canzone interrogativa
TTITLE9=Que reste-t-il de nos amour?
TTITLE10=Ti lascio una canzone
EXTD=YEAR: 2011
EXTT0=
EXTT1=
EXTT2=
EXTT3=
EXTT4=
EXTT5=
EXTT6=
EXTT7=
EXTT8=
EXTT9=
EXTT10=
PLAYORDER=
